<?xml version="1.0" standalone="no"?>
<!DOCTYPE svg PUBLIC "-//W3C//DTD SVG 20010904//EN"
 "http://www.w3.org/TR/2001/REC-SVG-20010904/DTD/svg10.dtd">
<svg version="1.0" xmlns="http://www.w3.org/2000/svg"
 width="256.000000pt" height="256.000000pt" viewBox="0 0 256.000000 256.000000"
 preserveAspectRatio="xMidYMid meet">

<g transform="translate(0.000000,256.000000) scale(0.100000,-0.100000)"
fill="#000000" stroke="none">
<path d="M0 1280 l0 -1280 1280 0 1280 0 0 1280 0 1280 -1280 0 -1280 0 0
-1280z m1958 383 l-3 -108 -150 -5 -150 -5 -3 -357 -2 -358 -120 0 -120 0 -2
358 -3 357 -119 3 -118 3 7 -28 c40 -160 29 -397 -24 -518 -27 -62 -84 -119
-144 -146 -49 -22 -65 -24 -304 -27 l-253 -4 0 471 0 471 755 0 756 0 -3 -107z
m220 -720 l-3 -108 -107 -3 -108 -3 0 111 0 110 110 0 111 0 -3 -107z"/>
<path d="M694 1537 c-2 -7 -3 -118 -2 -247 l3 -235 92 0 c83 0 94 3 117 24 37
35 49 106 44 257 -5 141 -16 177 -59 200 -36 18 -187 20 -195 1z"/>
</g>
</svg>
